21:[Parsed_showinfo_1 @ 0xab7406280] n:   0 pts:    375 pts_time:0.625   duration:     10 duration_time:0.0166667 fmt:yuv420p cl:left sar:0/1 s:2124x1202 i:P iskey:0 type:P checksum:6DFE0702 plane_checksum:[03018A8D E1BE62AA 16FD19BC] mean:[82 126 128] stdev:[53.4 3.2 4.6]
37:[Parsed_showinfo_1 @ 0xab7406280] n:   1 pts:    405 pts_time:0.675   duration:     10 duration_time:0.0166667 fmt:yuv420p cl:left sar:0/1 s:2124x1202 i:P iskey:0 type:B checksum:9628EAA1 plane_checksum:[D46EDD52 1760EC5A 5C6120E6] mean:[83 126 128] stdev:[53.3 3.3 4.7]
39:[Parsed_showinfo_1 @ 0xab7406280] n:   2 pts:    425 pts_time:0.708333 duration:     10 duration_time:0.0166667 fmt:yuv420p cl:left sar:0/1 s:2124x1202 i:P iskey:0 type:B checksum:9BF56773 plane_checksum:[8B2E5115 32B1DF59 CA6B36F6] mean:[83 126 128] stdev:[53.2 3.3 4.8]
41:[Parsed_showinfo_1 @ 0xab7406280] n:   3 pts:    445 pts_time:0.741667 duration:     10 duration_time:0.0166667 fmt:yuv420p cl:left sar:0/1 s:2124x1202 i:P iskey:0 type:B checksum:AB8BD2C2 plane_checksum:[54A61B71 03649CE3 572E1A6E] mean:[84 126 128] stdev:[53.1 3.3 4.8]
43:[Parsed_showinfo_1 @ 0xab7406280] n:   4 pts:    465 pts_time:0.775   duration:     10 duration_time:0.0166667 fmt:yuv420p cl:left sar:0/1 s:2124x1202 i:P iskey:0 type:B checksum:DF02170A plane_checksum:[A92B72CC 3DA88280 C22B21AF] mean:[84 126 128] stdev:[53.1 3.3 4.8]
45:[Parsed_showinfo_1 @ 0xab7406280] n:   5 pts:    490 pts_time:0.816667 duration:     10 duration_time:0.0166667 fmt:yuv420p cl:left sar:0/1 s:2124x1202 i:P iskey:0 type:B checksum:49A07D9D plane_checksum:[B068D0E5 1ADA7C35 8B093074] mean:[84 126 128] stdev:[53.0 3.3 4.8]
47:[Parsed_showinfo_1 @ 0xab7406280] n:   6 pts:    510 pts_time:0.85    duration:     10 duration_time:0.0166667 fmt:yuv420p cl:left sar:0/1 s:2124x1202 i:P iskey:0 type:B checksum:360A627B plane_checksum:[313497F8 8FE68ECF 370E3BA5] mean:[84 126 128] stdev:[53.0 3.3 4.8]
49:[Parsed_showinfo_1 @ 0xab7406280] n:   7 pts:   1245 pts_time:2.075   duration:     20 duration_time:0.0333333 fmt:yuv420p cl:left sar:0/1 s:2124x1202 i:P iskey:0 type:B checksum:82226EB5 plane_checksum:[A43E0F11 55BD30D4 30732ED0] mean:[32 128 126] stdev:[29.3 5.1 5.9]
51:[Parsed_showinfo_1 @ 0xab7406280] n:   8 pts:   1710 pts_time:2.85    duration:     20 duration_time:0.0333333 fmt:yuv420p cl:left sar:0/1 s:2124x1202 i:P iskey:0 type:B checksum:29AA4D61 plane_checksum:[7313BF5F D3F89ACC CC2EF318] mean:[49 132 125] stdev:[34.7 5.2 6.2]
53:[Parsed_showinfo_1 @ 0xab7406280] n:   9 pts:   1725 pts_time:2.875   duration:     20 duration_time:0.0333333 fmt:yuv420p cl:left sar:0/1 s:2124x1202 i:P iskey:0 type:B checksum:3CBD8767 plane_checksum:[2FBBB356 5EB60447 8DD7CFBB] mean:[48 132 125] stdev:[32.1 5.5 6.7]
55:[Parsed_showinfo_1 @ 0xab7406280] n:  10 pts:   2630 pts_time:4.383333 duration:     25 duration_time:0.0416667 fmt:yuv420p cl:left sar:0/1 s:2124x1202 i:P iskey:0 type:P checksum:FE863E07 plane_checksum:[F439C1D3 08EDE8B3 5C5E9363] mean:[220 125 127] stdev:[32.0 0.7 0.3]
57:frame=   11 fps=0.0 q=-0.0 size=N/A time=00:00:04.42 bitrate=N/A speed=8.76x elapsed=0:00:00.50    [Parsed_showinfo_1 @ 0xab7406280] n:  11 pts:   4790 pts_time:7.983333 duration:     20 duration_time:0.0333333 fmt:yuv420p cl:left sar:0/1 s:2124x1202 i:P iskey:0 type:B checksum:660DFF87 plane_checksum:[717BB97E 4423E529 3A7760D1] mean:[124 127 129] stdev:[54.9 15.4 9.4]
59:[Parsed_showinfo_1 @ 0xab7406280] n:  12 pts:   4810 pts_time:8.016667 duration:     20 duration_time:0.0333333 fmt:yuv420p cl:left sar:0/1 s:2124x1202 i:P iskey:0 type:B checksum:A6126743 plane_checksum:[CAA7FA87 796C32ED 949539C0] mean:[126 127 130] stdev:[54.7 15.4 9.4]
61:frame=   13 fps= 13 q=-0.0 size=N/A time=00:00:08.05 bitrate=N/A speed=7.97x elapsed=0:00:01.01    frame=   13 fps=8.6 q=-0.0 size=N/A time=00:00:08.05 bitrate=N/A speed=5.31x elapsed=0:00:01.51    [Parsed_showinfo_1 @ 0xab7406280] n:  13 pts:  12210 pts_time:20.35   duration:     20 duration_time:0.0333333 fmt:yuv420p cl:left sar:0/1 s:2124x1202 i:P iskey:0 type:B checksum:043A89D8 plane_checksum:[C32EB7E8 2DD131AC 2C2FA035] mean:[212 129 127] stdev:[54.8 6.1 6.9]
63:[Parsed_showinfo_1 @ 0xab7406280] n:  14 pts:  12810 pts_time:21.35   duration:     20 duration_time:0.0333333 fmt:yuv420p cl:left sar:0/1 s:2124x1202 i:P iskey:0 type:B checksum:85EFF8E9 plane_checksum:[63D0D9F2 689CF2B5 4B802C33] mean:[209 129 127] stdev:[58.0 5.9 6.8]
65:frame=   15 fps=7.4 q=-0.0 size=N/A time=00:00:21.38 bitrate=N/A speed=10.6x elapsed=0:00:02.01    [Parsed_showinfo_1 @ 0xab7406280] n:  15 pts:  13690 pts_time:22.816667 duration:     10 duration_time:0.0166667 fmt:yuv420p cl:left sar:0/1 s:2124x1202 i:P iskey:0 type:B checksum:E2B19305 plane_checksum:[7C0C8C77 274CF674 A177100B] mean:[115 97 152] stdev:[34.9 14.4 11.9]
67:[Parsed_showinfo_1 @ 0xab7406280] n:  16 pts:  15210 pts_time:25.35   duration:     20 duration_time:0.0333333 fmt:yuv420p cl:left sar:0/1 s:2124x1202 i:P iskey:0 type:B checksum:95956B85 plane_checksum:[83E50EA4 47AFD689 E4658649] mean:[54 123 110] stdev:[39.7 6.5 18.9]
69:[Parsed_showinfo_1 @ 0xab7406280] n:  17 pts:  15230 pts_time:25.383333 duration:     20 duration_time:0.0333333 fmt:yuv420p cl:left sar:0/1 s:2124x1202 i:P iskey:0 type:B checksum:2ECDBFB2 plane_checksum:[C983A229 042E85F0 6C7C978A] mean:[53 123 110] stdev:[39.5 5.5 19.2]
71:[Parsed_showinfo_1 @ 0xab7406280] n:  18 pts:  15950 pts_time:26.583333 duration:     10 duration_time:0.0166667 fmt:yuv420p cl:left sar:0/1 s:2124x1202 i:P iskey:0 type:B checksum:D570F3AB plane_checksum:[10433255 739AD2A5 A379EEA2] mean:[208 129 133] stdev:[51.8 5.9 25.2]
73:frame=   19 fps=7.5 q=-0.0 size=N/A time=00:00:26.60 bitrate=N/A speed=10.5x elapsed=0:00:02.52    [Parsed_showinfo_1 @ 0xab7406280] n:  19 pts:  15965 pts_time:26.608333 duration:     15 duration_time:0.025   fmt:yuv420p cl:left sar:0/1 s:2124x1202 i:P iskey:0 type:B checksum:45E5410C plane_checksum:[4F5D3E9C BDCDB9A8 D45348B9] mean:[208 129 133] stdev:[53.7 6.4 26.9]
75:[Parsed_showinfo_1 @ 0xab7406280] n:  20 pts:  15990 pts_time:26.65   duration:     15 duration_time:0.025   fmt:yuv420p cl:left sar:0/1 s:2124x1202 i:P iskey:0 type:P checksum:332F602B plane_checksum:[32BE2F38 454EA91A D5A187CA] mean:[208 129 133] stdev:[54.2 6.5 27.3]
77:[Parsed_showinfo_1 @ 0xab7406280] n:  21 pts:  17590 pts_time:29.316667 duration:     15 duration_time:0.025   fmt:yuv420p cl:left sar:0/1 s:2124x1202 i:P iskey:0 type:B checksum:9C86643D plane_checksum:[A380B105 E25D78F9 8C383A30] mean:[217 129 127] stdev:[49.1 7.0 7.2]
79:[Parsed_showinfo_1 @ 0xab7406280] n:  22 pts:  20390 pts_time:33.983333 duration:      5 duration_time:0.00833333 fmt:yuv420p cl:left sar:0/1 s:2124x1202 i:P iskey:0 type:B checksum:0F4A6E77 plane_checksum:[4320DC4F F2C43CC9 D9A25550] mean:[120 121 133] stdev:[59.7 10.9 9.3]
81:[Parsed_showinfo_1 @ 0xab7406280] n:  23 pts:  20410 pts_time:34.016667 duration:     25 duration_time:0.0416667 fmt:yuv420p cl:left sar:0/1 s:2124x1202 i:P iskey:0 type:P checksum:7A18D3AD plane_checksum:[1CD66E04 A124AF0D 6341B68D] mean:[120 121 133] stdev:[61.2 11.0 9.3]
83:frame=   24 fps=7.9 q=-0.0 size=N/A time=00:00:34.05 bitrate=N/A speed=11.3x elapsed=0:00:03.02    [Parsed_showinfo_1 @ 0xab7406280] n:  24 pts:  20425 pts_time:34.041667 duration:     10 duration_time:0.0166667 fmt:yuv420p cl:left sar:0/1 s:2124x1202 i:P iskey:0 type:P checksum:033D11EE plane_checksum:[9F3C7478 3B4E16DE 1B018689] mean:[120 121 133] stdev:[61.6 11.0 9.3]
85:[Parsed_showinfo_1 @ 0xab7406280] n:  25 pts:  20445 pts_time:34.075  duration:     10 duration_time:0.0166667 fmt:yuv420p cl:left sar:0/1 s:2124x1202 i:P iskey:0 type:B checksum:6388D7FE plane_checksum:[EDA4A461 B798D76B 20BF5C23] mean:[121 121 133] stdev:[61.7 11.0 9.3]
87:[Parsed_showinfo_1 @ 0xab7406280] n:  26 pts:  20485 pts_time:34.141667 duration:     20 duration_time:0.0333333 fmt:yuv420p cl:left sar:0/1 s:2124x1202 i:P iskey:0 type:P checksum:3E90D0A6 plane_checksum:[70EF7A51 1E3EC669 3A968FDD] mean:[121 121 133] stdev:[62.0 11.0 9.3]
89:[Parsed_showinfo_1 @ 0xab7406280] n:  27 pts:  20525 pts_time:34.208333 duration:     10 duration_time:0.0166667 fmt:yuv420p cl:left sar:0/1 s:2124x1202 i:P iskey:0 type:P checksum:10560FE0 plane_checksum:[C45723AE 267063BD F0638866] mean:[121 121 133] stdev:[62.1 11.0 9.3]
91:[Parsed_showinfo_1 @ 0xab7406280] n:  28 pts:  21850 pts_time:36.416667 duration:     20 duration_time:0.0333333 fmt:yuv420p cl:left sar:0/1 s:2124x1202 i:P iskey:0 type:P checksum:2AE89595 plane_checksum:[5A10D853 00D79F7A 4FE81DB9] mean:[89 128 128] stdev:[39.3 3.9 7.4]
93:[Parsed_showinfo_1 @ 0xab7406280] n:  29 pts:  21870 pts_time:36.45   duration:     15 duration_time:0.025   fmt:yuv420p cl:left sar:0/1 s:2124x1202 i:P iskey:0 type:P checksum:FB4DE181 plane_checksum:[68F1D73F 218693F3 D61B7640] mean:[89 128 128] stdev:[39.3 4.1 7.8]
